<svg width="63" height="50" viewBox="0 0 63 50" fill="none" xmlns="http://www.w3.org/2000/svg">
<path d="M49.918 21.0502L50.8402 21.4368L49.918 21.0502ZM59.249 0.621734C59.0398 0.11059 58.4559 -0.134212 57.9447 0.0749558L49.6152 3.48353C49.104 3.6927 48.8592 4.27662 49.0684 4.78776C49.2776 5.29891 49.8615 5.54371 50.3726 5.33454L57.7767 2.3047L60.8065 9.70876C61.0157 10.2199 61.5996 10.4647 62.1108 10.2555C62.6219 10.0464 62.8667 9.46244 62.6575 8.9513L59.249 0.621734ZM1.60317 47.0056C1.05385 46.9484 0.56221 47.3474 0.505064 47.8968C0.447918 48.4461 0.846904 48.9377 1.39622 48.9949L1.60317 47.0056ZM18.5499 47.0023L18.7569 47.9807L18.757 47.9807L18.5499 47.0023ZM50.8402 21.4368L59.2457 1.38709L57.4012 0.613835L48.9958 20.6635L50.8402 21.4368ZM1.4997 48.0002C1.39622 48.9949 1.39642 48.9949 1.39664 48.9949C1.39676 48.9949 1.39701 48.9949 1.39725 48.995C1.39772 48.995 1.39831 48.9951 1.39903 48.9951C1.40047 48.9953 1.40241 48.9955 1.40485 48.9957C1.40973 48.9962 1.41661 48.9969 1.42545 48.9978C1.44314 48.9995 1.46869 49.002 1.50188 49.0051C1.56825 49.0113 1.66515 49.02 1.79069 49.0302C2.04175 49.0508 2.40746 49.0777 2.8726 49.104C3.80265 49.1566 5.13164 49.2068 6.73768 49.1981C9.94523 49.1807 14.2798 48.9282 18.7569 47.9807L18.3428 46.024C14.0399 46.9347 9.84932 47.1812 6.72681 47.1981C5.16781 47.2066 3.88053 47.1578 2.98556 47.1072C2.5382 47.0819 2.18921 47.0562 1.95371 47.0369C1.83596 47.0273 1.74662 47.0193 1.68755 47.0138C1.65803 47.011 1.63607 47.0089 1.62193 47.0075C1.61485 47.0068 1.60974 47.0063 1.6066 47.0059C1.60503 47.0058 1.60396 47.0057 1.60339 47.0056C1.6031 47.0056 1.60294 47.0056 1.6029 47.0056C1.60288 47.0056 1.60295 47.0056 1.60294 47.0056C1.60304 47.0056 1.60317 47.0056 1.4997 48.0002ZM48.9958 20.6635C43.558 33.6343 32.1026 43.1119 18.3428 46.024L18.757 47.9807C33.1588 44.9327 45.1487 35.0129 50.8402 21.4368L48.9958 20.6635Z" fill="#0B0B0B"/>
</svg>
